<?xml version="1.0" standalone="no"?>
<svg width="484" height="132" viewBox="-8 -58 484 132 " xmlns="http://www.w3.org/2000/svg" version="1.1">
<defs><style type="text/css">.terminal_rect{fill:rgb(206,255,206);stroke:black;stroke-width:2;}.terminal_text{fill:black;font-family:Verdana,Sans-serif;text-anchor:middle;font-size:14px;}.symbol_rect{fill:rgb(206,255,206);stroke:black;stroke-width:2;}.symbol_text{fill:black;font-family:Verdana,Sans-serif;font-weight:bold;font-style:italic;text-anchor:middle;font-size:14px;}.path{fill:none;stroke:black;stroke-width:2;}.rule_text{fill:black;font-family:Verdana,Sans-serif;font-weight:bold;font-size:14px;}.rule_path_edge{fill:none;stroke:black;stroke-width:3;}</style></defs>
<text class="rule_text" x="0" y="-36" >computeMethod:</text>
<rect class="symbol_rect" x="30" y="-14" width="116" height="28" rx="1" />
<text class="symbol_text" x="88" y="4" >callMethod</text>
<rect class="terminal_rect" x="206" y="-14" width="26" height="28" rx="28" />
<text class="terminal_text" x="219" y="4" >:</text>
<rect class="symbol_rect" x="256" y="-14" width="146" height="28" rx="1" />
<text class="symbol_text" x="329" y="4" >attributeName</text>
<path class="path" d="M232 0 L256 0" />
<path class="path" d="M206 44 L222 44" />
<path class="path" d="M170 0 L206 0 M170 0 Q182 0 182 12 M438 0 L402 0 M438 0 Q426 0 426 12" />
<path class="path" d="M194 44 L206 44 M194 44 Q182 44 182 32 L182 12 M414 44 L222 44 M414 44 Q426 44 426 32 L426 12" />
<path class="path" d="M146 0 L170 0" />
<path class="path" d="M0 0 L30 0 M468 0 L438 0" />
<path class="rule_path_edge" d="M0 -6 L0 6 M468 -6 L468 6" />
</svg>
