<?xml version="1.0" standalone="no"?>
<svg width="786" height="204" viewBox="-8 -86 786 204 " xmlns="http://www.w3.org/2000/svg" version="1.1">
<defs><style type="text/css">.terminal_rect{fill:rgb(206,255,206);stroke:black;stroke-width:2;}.terminal_text{fill:black;font-family:Verdana,Sans-serif;text-anchor:middle;font-size:14px;}.symbol_rect{fill:rgb(206,255,206);stroke:black;stroke-width:2;}.symbol_text{fill:black;font-family:Verdana,Sans-serif;font-weight:bold;font-style:italic;text-anchor:middle;font-size:14px;}.path{fill:none;stroke:black;stroke-width:2;}.rule_text{fill:black;font-family:Verdana,Sans-serif;font-weight:bold;font-size:14px;}.rule_path_edge{fill:none;stroke:black;stroke-width:3;}</style></defs>
<text class="rule_text" x="0" y="-64" >methodInput:</text>
<rect class="terminal_rect" x="78" y="-14" width="96" height="28" rx="28" />
<text class="terminal_text" x="126" y="4" >&lt;spaces&gt;</text>
<path class="path" d="M78 0 L54 0 M66 0 Q54 0 54 -12 L54 -36 Q54 -48 66 -48 L186 -48 Q198 -48 198 -36 L198 -12 Q198 0 186 0 L174 0 L198 0" />
<path class="path" d="M78 0 L30 0 Q42 0 42 12 L42 24 Q42 36 54 36 L198 36 Q210 36 210 24 L210 12 Q210 0 222 0 L174 0 M30 0 L54 0 M198 0 L222 0" />
<rect class="symbol_rect" x="282" y="-14" width="206" height="28" rx="1" />
<text class="symbol_text" x="385" y="4" >sourceAttributeName</text>
<rect class="symbol_rect" x="282" y="30" width="56" height="28" rx="1" />
<text class="symbol_text" x="310" y="48" >text</text>
<rect class="symbol_rect" x="282" y="74" width="86" height="28" rx="1" />
<text class="symbol_text" x="325" y="92" >keyWord</text>
<path class="path" d="M246 0 L282 0 M246 0 Q258 0 258 12 M524 0 L488 0 M524 0 Q512 0 512 12" />
<path class="path" d="M270 44 L282 44 M270 44 Q258 44 258 32 L258 12 M500 44 L338 44 M500 44 Q512 44 512 32 L512 12" />
<path class="path" d="M270 88 L282 88 M270 88 Q258 88 258 76 L258 32 M500 88 L368 88 M500 88 Q512 88 512 76 L512 32" />
<rect class="terminal_rect" x="596" y="-14" width="96" height="28" rx="28" />
<text class="terminal_text" x="644" y="4" >&lt;spaces&gt;</text>
<path class="path" d="M596 0 L572 0 M584 0 Q572 0 572 -12 L572 -36 Q572 -48 584 -48 L704 -48 Q716 -48 716 -36 L716 -12 Q716 0 704 0 L692 0 L716 0" />
<path class="path" d="M596 0 L548 0 Q560 0 560 12 L560 24 Q560 36 572 36 L716 36 Q728 36 728 24 L728 12 Q728 0 740 0 L692 0 M548 0 L572 0 M716 0 L740 0" />
<path class="path" d="M222 0 L246 0" />
<path class="path" d="M524 0 L548 0" />
<path class="path" d="M0 0 L30 0 M770 0 L740 0" />
<path class="rule_path_edge" d="M0 -6 L0 6 M770 -6 L770 6" />
</svg>
