<?xml version="1.0" encoding="UTF-8"?><svg xmlns="http://www.w3.org/2000/svg" xmlns:xlink="http://www.w3.org/1999/xlink" fill-opacity="1" color-rendering="auto" color-interpolation="auto" stroke="black" text-rendering="auto" stroke-linecap="square" width="708" stroke-miterlimit="10" stroke-opacity="1" shape-rendering="auto" fill="black" stroke-dasharray="none" font-weight="normal" stroke-width="1" height="271" font-family="'Dialog'" font-style="normal" stroke-linejoin="miter" font-size="12" stroke-dashoffset="0" image-rendering="auto">
  <!--Generated by ySVG-->
  <defs id="genericDefs"/>
  <g>
    <defs id="defs1">
      <linearGradient x1="381.5934" gradientUnits="userSpaceOnUse" x2="569.8961" y1="-194.6172" y2="-131.7266" id="linearGradient1" spreadMethod="reflect">
        <stop stop-opacity="1" stop-color="rgb(255,255,153)" offset="0%"/>
        <stop stop-opacity="1" stop-color="rgb(255,255,153)" offset="100%"/>
      </linearGradient>
      <linearGradient x1="125.6501" gradientUnits="userSpaceOnUse" x2="298.707" y1="-199.1849" y2="-122.929" id="linearGradient2" spreadMethod="reflect">
        <stop stop-opacity="1" stop-color="rgb(232,238,247)" offset="0%"/>
        <stop stop-opacity="1" stop-color="rgb(183,201,227)" offset="100%"/>
      </linearGradient>
      <linearGradient x1="435.7448" gradientUnits="userSpaceOnUse" x2="515.7448" y1="-278.948" y2="-238.948" id="linearGradient3" spreadMethod="reflect">
        <stop stop-opacity="1" stop-color="rgb(232,238,247)" offset="0%"/>
        <stop stop-opacity="1" stop-color="rgb(183,201,227)" offset="100%"/>
      </linearGradient>
      <linearGradient x1="435.7448" gradientUnits="userSpaceOnUse" x2="515.7448" y1="-78.3318" y2="-38.3318" id="linearGradient4" spreadMethod="reflect">
        <stop stop-opacity="1" stop-color="rgb(232,238,247)" offset="0%"/>
        <stop stop-opacity="1" stop-color="rgb(183,201,227)" offset="100%"/>
      </linearGradient>
      <linearGradient x1="652.7824" gradientUnits="userSpaceOnUse" x2="802.8773" y1="-214.8532" y2="-139.8058" id="linearGradient5" spreadMethod="reflect">
        <stop stop-opacity="1" stop-color="rgb(232,238,247)" offset="0%"/>
        <stop stop-opacity="1" stop-color="rgb(183,201,227)" offset="100%"/>
      </linearGradient>
      <clipPath clipPathUnits="userSpaceOnUse" id="clipPath1">
        <path d="M0 0 L708 0 L708 271 L0 271 L0 0 Z"/>
      </clipPath>
      <clipPath clipPathUnits="userSpaceOnUse" id="clipPath2">
        <path d="M110 -294 L818 -294 L818 -23 L110 -23 L110 -294 Z"/>
      </clipPath>
    </defs>
    <g fill="url(#linearGradient1)" transform="matrix(1,0,0,1,-110,294)" stroke="url(#linearGradient1)">
      <path d="M475.7448 -194.6172 L569.8961 -163.1719 L475.7448 -131.7266 L381.5934 -163.1719 Z" clip-path="url(#clipPath2)" stroke="none"/>
    </g>
    <g stroke-linecap="butt" transform="matrix(1,0,0,1,-110,294)" stroke-miterlimit="1.45">
      <path fill="none" d="M475.7448 -194.6172 L569.8961 -163.1719 L475.7448 -131.7266 L381.5934 -163.1719 Z" clip-path="url(#clipPath2)"/>
      <text x="464.4723" font-size="14" y="-158.3252" clip-path="url(#clipPath2)" font-family="sans-serif" stroke="none" xml:space="preserve">m0</text>
    </g>
    <g fill="url(#linearGradient2)" transform="matrix(1,0,0,1,-110,294)" stroke="url(#linearGradient2)">
      <rect x="125.6501" y="-199.1849" clip-path="url(#clipPath2)" width="173.0569" rx="38.128" ry="38.128" height="76.2559" stroke="none"/>
    </g>
    <g stroke-linecap="butt" transform="matrix(1,0,0,1,-110,294)" stroke-miterlimit="1.45">
      <rect x="125.6501" y="-199.1849" clip-path="url(#clipPath2)" fill="none" width="173.0569" rx="38.128" ry="38.128" height="76.2559"/>
      <text x="168.6317" xml:space="preserve" y="-163.887" font-family="sans-serif" clip-path="url(#clipPath2)" stroke="none">Demande liste</text>
      <text x="167.9344" xml:space="preserve" y="-149.9183" font-family="sans-serif" clip-path="url(#clipPath2)" stroke="none">des transitions</text>
    </g>
    <g fill="url(#linearGradient3)" transform="matrix(1,0,0,1,-110,294)" stroke="url(#linearGradient3)">
      <path d="M445.7448 -278.948 L505.7448 -278.948 L515.7448 -268.948 L515.7448 -238.948 L435.7448 -238.948 L435.7448 -268.948 Z" clip-path="url(#clipPath2)" stroke="none"/>
    </g>
    <g stroke-linecap="butt" transform="matrix(1,0,0,1,-110,294)" stroke-miterlimit="1.45">
      <path fill="none" d="M445.7448 -278.948 L505.7448 -278.948 L515.7448 -268.948 L515.7448 -238.948 L435.7448 -238.948 L435.7448 -268.948 Z" clip-path="url(#clipPath2)"/>
    </g>
    <g fill="url(#linearGradient4)" transform="matrix(1,0,0,1,-110,294)" stroke="url(#linearGradient4)">
      <path d="M435.7448 -78.3318 L515.7448 -78.3318 L515.7448 -48.3318 L505.7448 -38.3318 L445.7448 -38.3318 L435.7448 -48.3318 Z" clip-path="url(#clipPath2)" stroke="none"/>
    </g>
    <g stroke-linecap="butt" transform="matrix(1,0,0,1,-110,294)" stroke-miterlimit="1.45">
      <path fill="none" d="M435.7448 -78.3318 L515.7448 -78.3318 L515.7448 -48.3318 L505.7448 -38.3318 L445.7448 -38.3318 L435.7448 -48.3318 Z" clip-path="url(#clipPath2)"/>
    </g>
    <g fill="url(#linearGradient5)" transform="matrix(1,0,0,1,-110,294)" stroke="url(#linearGradient5)">
      <rect x="652.7824" y="-214.8532" clip-path="url(#clipPath2)" width="150.0948" rx="37.5237" ry="37.5237" height="75.0474" stroke="none"/>
    </g>
    <g stroke-linecap="butt" transform="matrix(1,0,0,1,-110,294)" stroke-miterlimit="1.45">
      <rect x="652.7824" y="-214.8532" clip-path="url(#clipPath2)" fill="none" width="150.0948" rx="37.5237" ry="37.5237" height="75.0474"/>
      <text x="667.4988" xml:space="preserve" y="-180.1596" font-family="sans-serif" clip-path="url(#clipPath2)" stroke="none">Liste des transitions</text>
      <text x="700.1384" xml:space="preserve" y="-166.1908" font-family="sans-serif" clip-path="url(#clipPath2)" stroke="none">possibles</text>
    </g>
    <g stroke-linecap="butt" transform="matrix(1,0,0,1,-110,294)" stroke-miterlimit="1.45">
      <path fill="none" d="M286.7892 -188.7681 L428.2491 -241.3076" clip-path="url(#clipPath2)"/>
    </g>
    <g stroke-linecap="butt" transform="matrix(1,0,0,1,-110,294)" stroke-miterlimit="1.45">
      <path d="M435.7485 -244.093 L422.7585 -244.6021 L427.3116 -240.9595 L426.2402 -235.2278 Z" clip-path="url(#clipPath2)" stroke="none"/>
      <path fill="none" d="M475.7448 -238.979 L475.7448 -202.5978" clip-path="url(#clipPath2)"/>
      <path d="M475.7448 -194.5978 L480.7448 -206.5978 L475.7448 -203.5978 L470.7448 -206.5978 Z" clip-path="url(#clipPath2)" stroke="none"/>
      <path fill="none" d="M475.7448 -131.7148 L475.7448 -86.3616" clip-path="url(#clipPath2)"/>
      <path d="M475.7448 -78.3616 L480.7448 -90.3616 L475.7448 -87.3616 L470.7448 -90.3616 Z" clip-path="url(#clipPath2)" stroke="none"/>
      <path fill="none" d="M515.7177 -77.2012 L659.204 -144.9344" clip-path="url(#clipPath2)"/>
      <path d="M666.4385 -148.3495 L653.4524 -147.7484 L658.2997 -144.5076 L657.7212 -138.7054 Z" clip-path="url(#clipPath2)" stroke="none"/>
    </g>
  </g>
</svg>
