<?xml version="1.0" encoding="UTF-8"?><svg xmlns="http://www.w3.org/2000/svg" xmlns:xlink="http://www.w3.org/1999/xlink" fill-opacity="1" color-rendering="auto" color-interpolation="auto" stroke="black" text-rendering="auto" stroke-linecap="square" width="725" stroke-miterlimit="10" stroke-opacity="1" shape-rendering="auto" fill="black" stroke-dasharray="none" font-weight="normal" stroke-width="1" height="94" font-family="'Dialog'" font-style="normal" stroke-linejoin="miter" font-size="12" stroke-dashoffset="0" image-rendering="auto">
  <!--Generated by ySVG-->
  <defs id="genericDefs"/>
  <g>
    <defs id="defs1">
      <linearGradient x1="714.0539" gradientUnits="userSpaceOnUse" x2="902.3566" y1="516.5547" y2="579.4453" id="linearGradient1" spreadMethod="reflect">
        <stop stop-opacity="1" stop-color="rgb(232,238,247)" offset="0%"/>
        <stop stop-opacity="1" stop-color="rgb(183,201,227)" offset="100%"/>
      </linearGradient>
      <linearGradient x1="1220.5601" gradientUnits="userSpaceOnUse" x2="1408.8628" y1="516.5547" y2="579.4453" id="linearGradient2" spreadMethod="reflect">
        <stop stop-opacity="1" stop-color="rgb(232,238,247)" offset="0%"/>
        <stop stop-opacity="1" stop-color="rgb(183,201,227)" offset="100%"/>
      </linearGradient>
      <linearGradient x1="967.3069" gradientUnits="userSpaceOnUse" x2="1155.6097" y1="516.5547" y2="579.4453" id="linearGradient3" spreadMethod="reflect">
        <stop stop-opacity="1" stop-color="rgb(232,238,247)" offset="0%"/>
        <stop stop-opacity="1" stop-color="rgb(183,201,227)" offset="100%"/>
      </linearGradient>
      <clipPath clipPathUnits="userSpaceOnUse" id="clipPath1">
        <path d="M0 0 L725 0 L725 94 L0 94 L0 0 Z"/>
      </clipPath>
      <clipPath clipPathUnits="userSpaceOnUse" id="clipPath2">
        <path d="M699 501 L1424 501 L1424 595 L699 595 L699 501 Z"/>
      </clipPath>
    </defs>
    <g fill="url(#linearGradient1)" transform="matrix(1,0,0,1,-699,-501)" stroke="url(#linearGradient1)">
      <ellipse rx="94.1514" ry="31.4453" clip-path="url(#clipPath2)" cx="808.2052" cy="548" stroke="none"/>
    </g>
    <g stroke-linecap="butt" transform="matrix(1,0,0,1,-699,-501)" stroke-miterlimit="1.45">
      <ellipse rx="94.1514" fill="none" ry="31.4453" clip-path="url(#clipPath2)" cx="808.2052" cy="548"/>
      <text x="779.0695" xml:space="preserve" y="545.1699" font-family="sans-serif" clip-path="url(#clipPath2)" stroke="none">Demande</text>
      <text x="770.2131" xml:space="preserve" y="559.1387" font-family="sans-serif" clip-path="url(#clipPath2)" stroke="none">de transition</text>
    </g>
    <g fill="url(#linearGradient2)" transform="matrix(1,0,0,1,-699,-501)" stroke="url(#linearGradient2)">
      <path d="M1220.5601 526.5547 L1408.8628 516.5547 L1408.8628 579.4453 L1220.5601 579.4453 Z" clip-path="url(#clipPath2)" stroke="none"/>
    </g>
    <g stroke-linecap="butt" transform="matrix(1,0,0,1,-699,-501)" stroke-miterlimit="1.45">
      <path fill="none" d="M1220.5601 526.5547 L1408.8628 516.5547 L1408.8628 579.4453 L1220.5601 579.4453 Z" clip-path="url(#clipPath2)"/>
      <text x="1269.3003" font-size="14" y="536.5498" clip-path="url(#clipPath2)" font-family="sans-serif" stroke="none" xml:space="preserve">Confirmation</text>
      <text x="1308.8462" font-size="14" y="552.8467" clip-path="url(#clipPath2)" font-family="sans-serif" stroke="none" xml:space="preserve">+</text>
      <text x="1227.5601" font-size="14" y="569.1436" clip-path="url(#clipPath2)" font-family="sans-serif" stroke="none" xml:space="preserve">paramètres de transition</text>
    </g>
    <g fill="url(#linearGradient3)" transform="matrix(1,0,0,1,-699,-501)" stroke="url(#linearGradient3)">
      <path d="M1061.4584 516.5547 L1155.6097 548 L1061.4584 579.4453 L967.3069 548 Z" clip-path="url(#clipPath2)" stroke="none"/>
    </g>
    <g stroke-linecap="butt" transform="matrix(1,0,0,1,-699,-501)" stroke-miterlimit="1.45">
      <path fill="none" d="M1061.4584 516.5547 L1155.6097 548 L1061.4584 579.4453 L967.3069 548 Z" clip-path="url(#clipPath2)"/>
      <text x="1017.0726" font-size="14" y="544.6982" clip-path="url(#clipPath2)" font-family="sans-serif" stroke="none" xml:space="preserve">Contrôle des</text>
      <text x="1041.5179" font-size="14" y="560.9951" clip-path="url(#clipPath2)" font-family="sans-serif" stroke="none" xml:space="preserve">droits</text>
    </g>
    <g stroke-linecap="butt" transform="matrix(1,0,0,1,-699,-501)" stroke-miterlimit="1.45">
      <path fill="none" d="M902.3405 548 L959.3317 548" clip-path="url(#clipPath2)"/>
    </g>
    <g stroke-linecap="butt" transform="matrix(1,0,0,1,-699,-501)" stroke-miterlimit="1.45">
      <path d="M967.3317 548 L955.3317 543 L958.3317 548 L955.3317 553 Z" clip-path="url(#clipPath2)" stroke="none"/>
      <path fill="none" d="M1155.5935 548 L1212.5848 548" clip-path="url(#clipPath2)"/>
      <path d="M1220.5848 548 L1208.5848 543 L1211.5848 548 L1208.5848 553 Z" clip-path="url(#clipPath2)" stroke="none"/>
    </g>
  </g>
</svg>
