<?xml version="1.0" encoding="UTF-8"?><svg xmlns="http://www.w3.org/2000/svg" xmlns:xlink="http://www.w3.org/1999/xlink" fill-opacity="1" color-rendering="auto" color-interpolation="auto" stroke="black" text-rendering="auto" stroke-linecap="square" width="920" stroke-miterlimit="10" stroke-opacity="1" shape-rendering="auto" fill="black" stroke-dasharray="none" font-weight="normal" stroke-width="1" height="348" font-family="'Dialog'" font-style="normal" stroke-linejoin="miter" font-size="12" stroke-dashoffset="0" image-rendering="auto">
  <!--Generated by ySVG-->
  <defs id="genericDefs"/>
  <g>
    <defs id="defs1">
      <linearGradient x1="315.7563" gradientUnits="userSpaceOnUse" x2="492.2437" y1="412.5547" y2="475.4453" id="linearGradient1" spreadMethod="reflect">
        <stop stop-opacity="1" stop-color="rgb(255,255,153)" offset="0%"/>
        <stop stop-opacity="1" stop-color="rgb(255,255,153)" offset="100%"/>
      </linearGradient>
      <linearGradient x1="560.2147" gradientUnits="userSpaceOnUse" x2="736.702" y1="412.5547" y2="475.4453" id="linearGradient2" spreadMethod="reflect">
        <stop stop-opacity="1" stop-color="rgb(232,238,247)" offset="0%"/>
        <stop stop-opacity="1" stop-color="rgb(183,201,227)" offset="100%"/>
      </linearGradient>
      <linearGradient x1="804.673" gradientUnits="userSpaceOnUse" x2="981.1603" y1="412.5547" y2="475.4453" id="linearGradient3" spreadMethod="reflect">
        <stop stop-opacity="1" stop-color="rgb(232,238,247)" offset="0%"/>
        <stop stop-opacity="1" stop-color="rgb(183,201,227)" offset="100%"/>
      </linearGradient>
      <linearGradient x1="1049.1313" gradientUnits="userSpaceOnUse" x2="1225.6187" y1="412.5547" y2="475.4453" id="linearGradient4" spreadMethod="reflect">
        <stop stop-opacity="1" stop-color="rgb(255,255,153)" offset="0%"/>
        <stop stop-opacity="1" stop-color="rgb(255,255,153)" offset="100%"/>
      </linearGradient>
      <linearGradient x1="1293.5897" gradientUnits="userSpaceOnUse" x2="1470.077" y1="412.5547" y2="475.4453" id="linearGradient5" spreadMethod="reflect">
        <stop stop-opacity="1" stop-color="rgb(232,238,247)" offset="0%"/>
        <stop stop-opacity="1" stop-color="rgb(183,201,227)" offset="100%"/>
      </linearGradient>
      <linearGradient x1="560.2147" gradientUnits="userSpaceOnUse" x2="736.702" y1="147.2854" y2="210.1761" id="linearGradient6" spreadMethod="reflect">
        <stop stop-opacity="1" stop-color="rgb(255,255,153)" offset="0%"/>
        <stop stop-opacity="1" stop-color="rgb(255,255,153)" offset="100%"/>
      </linearGradient>
      <linearGradient x1="804.673" gradientUnits="userSpaceOnUse" x2="981.1603" y1="147.2854" y2="210.1761" id="linearGradient7" spreadMethod="reflect">
        <stop stop-opacity="1" stop-color="rgb(255,255,153)" offset="0%"/>
        <stop stop-opacity="1" stop-color="rgb(255,255,153)" offset="100%"/>
      </linearGradient>
      <linearGradient x1="681.7563" gradientUnits="userSpaceOnUse" x2="858.2437" y1="14.6508" y2="77.5415" id="linearGradient8" spreadMethod="reflect">
        <stop stop-opacity="1" stop-color="rgb(232,238,247)" offset="0%"/>
        <stop stop-opacity="1" stop-color="rgb(183,201,227)" offset="100%"/>
      </linearGradient>
      <linearGradient x1="681.7563" gradientUnits="userSpaceOnUse" x2="858.2437" y1="279.9201" y2="342.8107" id="linearGradient9" spreadMethod="reflect">
        <stop stop-opacity="1" stop-color="rgb(232,238,247)" offset="0%"/>
        <stop stop-opacity="1" stop-color="rgb(183,201,227)" offset="100%"/>
      </linearGradient>
      <linearGradient x1="315.7563" gradientUnits="userSpaceOnUse" x2="492.2437" y1="147.2854" y2="210.1761" id="linearGradient10" spreadMethod="reflect">
        <stop stop-opacity="1" stop-color="rgb(232,238,247)" offset="0%"/>
        <stop stop-opacity="1" stop-color="rgb(183,201,227)" offset="100%"/>
      </linearGradient>
      <linearGradient x1="1049.1313" gradientUnits="userSpaceOnUse" x2="1225.6187" y1="147.2854" y2="210.1761" id="linearGradient11" spreadMethod="reflect">
        <stop stop-opacity="1" stop-color="rgb(232,238,247)" offset="0%"/>
        <stop stop-opacity="1" stop-color="rgb(183,201,227)" offset="100%"/>
      </linearGradient>
      <linearGradient x1="71.298" gradientUnits="userSpaceOnUse" x2="247.7853" y1="147.2854" y2="210.1761" id="linearGradient12" spreadMethod="reflect">
        <stop stop-opacity="1" stop-color="rgb(232,238,247)" offset="0%"/>
        <stop stop-opacity="1" stop-color="rgb(183,201,227)" offset="100%"/>
      </linearGradient>
      <clipPath clipPathUnits="userSpaceOnUse" id="clipPath1">
        <path d="M0 0 L920 0 L920 348 L0 348 L0 0 Z"/>
      </clipPath>
    </defs>
    <g id="y.node.0">
      <a xlink:href="#core-ref:ced2bc66-792e-4c55-bd0a-dcca09e9732d">
        <g fill="url(#linearGradient1)" transform="matrix(0.6434,0,0,0.6434,-36.028,0.6434)" stroke="url(#linearGradient1)">
          <path d="M315.7563 412.5547 L492.2437 412.5547 L492.2437 475.4453 L315.7563 475.4453 Z" stroke="none"/>
        </g>
        <g stroke-linecap="butt" transform="matrix(0.6434,0,0,0.6434,-36.028,0.6434)" stroke-miterlimit="1.45">
          <path fill="none" d="M315.7563 412.5547 L492.2437 412.5547 L492.2437 475.4453 L315.7563 475.4453 Z"/>
        </g>
        <g>
          <g font-size="14" stroke-miterlimit="1.45" font-family="sans-serif" transform="matrix(0.6434,0,0,0.6434,-36.028,0.6434)" stroke-linecap="butt">
            <text x="392.7275" xml:space="preserve" y="448.8467" stroke="none">m2</text>
          </g>
        </g>
      </a>
    </g>
    <g id="y.node.1">
      <g fill="url(#linearGradient2)" transform="matrix(0.6434,0,0,0.6434,-36.028,0.6434)" stroke="url(#linearGradient2)">
        <rect x="560.2147" width="176.4873" height="62.8906" y="412.5547" stroke="none"/>
      </g>
      <g stroke-linecap="butt" transform="matrix(0.6434,0,0,0.6434,-36.028,0.6434)" stroke-miterlimit="1.45">
        <rect fill="none" x="560.2147" width="176.4873" height="62.8906" y="412.5547"/>
        <path fill="none" d="M570.2147 412.5547 L570.2147 475.4453 M726.702 412.5547 L726.702 475.4453 M570.2147 412.5547 Z"/>
      </g>
      <g>
        <g font-size="14" stroke-miterlimit="1.45" font-family="sans-serif" transform="matrix(0.6434,0,0,0.6434,-36.028,0.6434)" stroke-linecap="butt">
          <text x="614.6068" xml:space="preserve" y="440.6982" stroke="none">Envois de</text>
          <text x="618.2913" xml:space="preserve" y="456.9951" stroke="none">courriels</text>
        </g>
      </g>
    </g>
    <g id="y.node.2">
      <g fill="url(#linearGradient3)" transform="matrix(0.6434,0,0,0.6434,-36.028,0.6434)" stroke="url(#linearGradient3)">
        <rect x="804.673" width="176.4873" height="62.8906" y="412.5547" stroke="none"/>
      </g>
      <g stroke-linecap="butt" transform="matrix(0.6434,0,0,0.6434,-36.028,0.6434)" stroke-miterlimit="1.45">
        <rect fill="none" x="804.673" width="176.4873" height="62.8906" y="412.5547"/>
        <path fill="none" d="M814.673 412.5547 L814.673 475.4453 M971.1603 412.5547 L971.1603 475.4453 M814.673 412.5547 Z"/>
      </g>
      <g>
        <g font-size="14" stroke-miterlimit="1.45" font-family="sans-serif" transform="matrix(0.6434,0,0,0.6434,-36.028,0.6434)" stroke-linecap="butt">
          <text x="838.1745" xml:space="preserve" y="432.5498" stroke="none">Attachement et</text>
          <text x="846.2341" xml:space="preserve" y="448.8467" stroke="none">détachement</text>
          <text x="842.6452" xml:space="preserve" y="465.1436" stroke="none">des minuteurs</text>
        </g>
      </g>
    </g>
    <g id="y.node.3">
      <a xlink:href="#core-ref:39462cd9-7962-4efe-888b-912d7256671a">
        <g fill="url(#linearGradient4)" transform="matrix(0.6434,0,0,0.6434,-36.028,0.6434)" stroke="url(#linearGradient4)">
          <path d="M1049.1313 412.5547 L1225.6187 412.5547 L1225.6187 475.4453 L1049.1313 475.4453 Z" stroke="none"/>
        </g>
        <g stroke-linecap="butt" transform="matrix(0.6434,0,0,0.6434,-36.028,0.6434)" stroke-miterlimit="1.45">
          <path fill="none" d="M1049.1313 412.5547 L1225.6187 412.5547 L1225.6187 475.4453 L1049.1313 475.4453 Z"/>
        </g>
        <g>
          <g font-size="14" stroke-miterlimit="1.45" font-family="sans-serif" transform="matrix(0.6434,0,0,0.6434,-36.028,0.6434)" stroke-linecap="butt">
            <text x="1126.1025" xml:space="preserve" y="448.8467" stroke="none">m3</text>
          </g>
        </g>
      </a>
    </g>
    <g id="y.node.4">
      <g fill="url(#linearGradient5)" transform="matrix(0.6434,0,0,0.6434,-36.028,0.6434)" stroke="url(#linearGradient5)">
        <rect x="1293.5897" y="412.5547" width="176.4873" rx="31.4453" ry="31.4453" height="62.8906" stroke="none"/>
      </g>
      <g stroke-linecap="butt" transform="matrix(0.6434,0,0,0.6434,-36.028,0.6434)" stroke-miterlimit="1.45">
        <rect x="1293.5897" y="412.5547" fill="none" width="176.4873" rx="31.4453" ry="31.4453" height="62.8906"/>
      </g>
      <g>
        <g font-size="14" stroke-miterlimit="1.45" font-family="sans-serif" transform="matrix(0.6434,0,0,0.6434,-36.028,0.6434)" stroke-linecap="butt">
          <text x="1324.8763" xml:space="preserve" y="448.8467" stroke="none">Fin de transition</text>
        </g>
      </g>
    </g>
    <g id="y.node.5">
      <a xlink:href="#core-ref:c3bcdf20-5756-4880-b067-36f0d62b68c5">
        <g fill="url(#linearGradient6)" transform="matrix(0.6434,0,0,0.6434,-36.028,0.6434)" stroke="url(#linearGradient6)">
          <path d="M648.4583 147.2854 L736.702 178.7308 L648.4583 210.1761 L560.2147 178.7308 Z" stroke="none"/>
        </g>
        <g stroke-linecap="butt" transform="matrix(0.6434,0,0,0.6434,-36.028,0.6434)" stroke-miterlimit="1.45">
          <path fill="none" d="M648.4583 147.2854 L736.702 178.7308 L648.4583 210.1761 L560.2147 178.7308 Z"/>
        </g>
        <g>
          <g font-size="14" stroke-miterlimit="1.45" font-family="sans-serif" transform="matrix(0.6434,0,0,0.6434,-36.028,0.6434)" stroke-linecap="butt">
            <text x="637.1859" xml:space="preserve" y="183.5774" stroke="none">m0</text>
          </g>
        </g>
      </a>
    </g>
    <g id="y.node.6">
      <a xlink:href="#core-ref:603b0905-6269-4dca-a656-55e1d5524c3a">
        <g fill="url(#linearGradient7)" transform="matrix(0.6434,0,0,0.6434,-36.028,0.6434)" stroke="url(#linearGradient7)">
          <path d="M892.9167 147.2854 L981.1603 178.7308 L892.9167 210.1761 L804.673 178.7308 Z" stroke="none"/>
        </g>
        <g stroke-linecap="butt" transform="matrix(0.6434,0,0,0.6434,-36.028,0.6434)" stroke-miterlimit="1.45">
          <path fill="none" d="M892.9167 147.2854 L981.1603 178.7308 L892.9167 210.1761 L804.673 178.7308 Z"/>
        </g>
        <g>
          <g font-size="14" stroke-miterlimit="1.45" font-family="sans-serif" transform="matrix(0.6434,0,0,0.6434,-36.028,0.6434)" stroke-linecap="butt">
            <text x="881.6442" xml:space="preserve" y="183.5774" stroke="none">m1</text>
          </g>
        </g>
      </a>
    </g>
    <g id="y.node.7">
      <g fill="url(#linearGradient8)" transform="matrix(0.6434,0,0,0.6434,-36.028,0.6434)" stroke="url(#linearGradient8)">
        <rect x="681.7563" y="14.6508" width="176.4873" rx="31.4453" ry="31.4453" height="62.8906" stroke="none"/>
      </g>
      <g stroke-linecap="butt" transform="matrix(0.6434,0,0,0.6434,-36.028,0.6434)" stroke-miterlimit="1.45">
        <rect x="681.7563" y="14.6508" fill="none" width="176.4873" rx="31.4453" ry="31.4453" height="62.8906"/>
      </g>
      <g>
        <g font-size="14" stroke-miterlimit="1.45" font-family="sans-serif" transform="matrix(0.6434,0,0,0.6434,-36.028,0.6434)" stroke-linecap="butt">
          <text x="739.3203" xml:space="preserve" y="42.7944" stroke="none">Message</text>
          <text x="741.9487" xml:space="preserve" y="59.0913" stroke="none">d'erreur</text>
        </g>
      </g>
    </g>
    <g id="y.node.8">
      <g fill="url(#linearGradient9)" transform="matrix(0.6434,0,0,0.6434,-36.028,0.6434)" stroke="url(#linearGradient9)">
        <path d="M681.7563 279.9201 L858.2437 279.9201 L858.2437 342.8107 L681.7563 342.8107 Z" stroke="none"/>
      </g>
      <g stroke-linecap="butt" transform="matrix(0.6434,0,0,0.6434,-36.028,0.6434)" stroke-miterlimit="1.45">
        <path fill="none" d="M681.7563 279.9201 L858.2437 279.9201 L858.2437 342.8107 L681.7563 342.8107 Z"/>
      </g>
      <g>
        <g font-size="14" stroke-miterlimit="1.45" font-family="sans-serif" transform="matrix(0.6434,0,0,0.6434,-36.028,0.6434)" stroke-linecap="butt">
          <text x="724.8931" xml:space="preserve" y="308.0636" stroke="none">Changement</text>
          <text x="749.5469" xml:space="preserve" y="324.3605" stroke="none">d'état</text>
        </g>
      </g>
    </g>
    <g id="y.node.9">
      <g fill="url(#linearGradient10)" transform="matrix(0.6434,0,0,0.6434,-36.028,0.6434)" stroke="url(#linearGradient10)">
        <path d="M404 147.2854 L492.2437 178.7308 L404 210.1761 L315.7563 178.7308 Z" stroke="none"/>
      </g>
      <g stroke-linecap="butt" transform="matrix(0.6434,0,0,0.6434,-36.028,0.6434)" stroke-miterlimit="1.45">
        <path fill="none" d="M404 147.2854 L492.2437 178.7308 L404 210.1761 L315.7563 178.7308 Z"/>
      </g>
      <g>
        <g font-size="14" stroke-miterlimit="1.45" font-family="sans-serif" transform="matrix(0.6434,0,0,0.6434,-36.028,0.6434)" stroke-linecap="butt">
          <text x="359.6143" xml:space="preserve" y="175.429" stroke="none">Contrôle des</text>
          <text x="384.0596" xml:space="preserve" y="191.7259" stroke="none">droits</text>
        </g>
      </g>
    </g>
    <g id="y.node.10">
      <g fill="url(#linearGradient11)" transform="matrix(0.6434,0,0,0.6434,-36.028,0.6434)" stroke="url(#linearGradient11)">
        <path d="M1137.375 147.2854 L1225.6187 178.7308 L1137.375 210.1761 L1049.1313 178.7308 Z" stroke="none"/>
      </g>
      <g stroke-linecap="butt" transform="matrix(0.6434,0,0,0.6434,-36.028,0.6434)" stroke-miterlimit="1.45">
        <path fill="none" d="M1137.375 147.2854 L1225.6187 178.7308 L1137.375 210.1761 L1049.1313 178.7308 Z"/>
      </g>
      <g>
        <g font-size="14" stroke-miterlimit="1.45" font-family="sans-serif" transform="matrix(0.6434,0,0,0.6434,-36.028,0.6434)" stroke-linecap="butt">
          <text x="1107.6113" xml:space="preserve" y="167.2806" stroke="none">Contrôle</text>
          <text x="1105.2769" xml:space="preserve" y="183.5774" stroke="none">attributs </text>
          <text x="1096.2227" xml:space="preserve" y="199.8743" stroke="none">obligatoires</text>
        </g>
      </g>
    </g>
    <g id="y.node.11">
      <g fill="url(#linearGradient12)" transform="matrix(0.6434,0,0,0.6434,-36.028,0.6434)" stroke="url(#linearGradient12)">
        <ellipse rx="88.2437" ry="31.4453" cx="159.5417" cy="178.7308" stroke="none"/>
      </g>
      <g stroke-linecap="butt" transform="matrix(0.6434,0,0,0.6434,-36.028,0.6434)" stroke-miterlimit="1.45">
        <ellipse rx="88.2437" fill="none" ry="31.4453" cx="159.5417" cy="178.7308"/>
      </g>
      <g>
        <g font-size="14" stroke-miterlimit="1.45" font-family="sans-serif" transform="matrix(0.6434,0,0,0.6434,-36.028,0.6434)" stroke-linecap="butt">
          <text x="125.55" xml:space="preserve" y="175.429" stroke="none">Demande</text>
          <text x="115.2174" xml:space="preserve" y="191.7259" stroke="none">de transition</text>
        </g>
      </g>
    </g>
    <g id="y.edge.0">
      <g stroke-linecap="butt" transform="matrix(0.6434,0,0,0.6434,-36.028,0.6434)" stroke-miterlimit="1.45">
        <path fill="none" d="M492.2401 444 L552.2424 444"/>
      </g>
      <g stroke-linecap="butt" transform="matrix(0.6434,0,0,0.6434,-36.028,0.6434)" stroke-miterlimit="1.45">
        <path d="M560.2424 444 L548.2424 439 L551.2424 444 L548.2424 449 Z" stroke="none"/>
      </g>
    </g>
    <g id="y.edge.1">
      <g stroke-linecap="butt" transform="matrix(0.6434,0,0,0.6434,-36.028,0.6434)" stroke-miterlimit="1.45">
        <path fill="none" d="M736.6985 444 L796.7007 444"/>
        <path d="M804.7007 444 L792.7007 439 L795.7007 444 L792.7007 449 Z" stroke="none"/>
      </g>
    </g>
    <g id="y.edge.2">
      <g stroke-linecap="butt" transform="matrix(0.6434,0,0,0.6434,-36.028,0.6434)" stroke-miterlimit="1.45">
        <path fill="none" d="M981.1568 444 L1041.1591 444"/>
        <path d="M1049.1591 444 L1037.1591 439 L1040.1591 444 L1037.1591 449 Z" stroke="none"/>
      </g>
    </g>
    <g id="y.edge.3">
      <g stroke-linecap="butt" transform="matrix(0.6434,0,0,0.6434,-36.028,0.6434)" stroke-miterlimit="1.45">
        <path fill="none" d="M1225.6151 444 L1285.6173 444"/>
        <path d="M1293.6173 444 L1281.6173 439 L1284.6173 444 L1281.6173 449 Z" stroke="none"/>
      </g>
    </g>
    <g id="y.edge.14">
      <g stroke-dasharray="0,4" stroke-miterlimit="1.45" stroke-dashoffset="2" transform="matrix(0.6434,0,0,0.6434,-36.028,0.6434)" stroke-linecap="round">
        <path fill="none" d="M404 475.406 L404 524.5 L1381.8334 524.5 L1381.8334 483.406"/>
        <path d="M1381.8334 475.406 L1376.8334 487.406 L1381.8334 484.406 L1386.8334 487.406 Z" stroke="none"/>
      </g>
      <g>
        <g stroke-miterlimit="1.45" font-family="sans-serif" transform="matrix(0.6434,0,0,0.6434,-36.028,0.6434)" stroke-linecap="butt">
          <text x="408" xml:space="preserve" y="518.6699" stroke="none">Message d'erreur</text>
        </g>
      </g>
    </g>
    <g id="y.edge.15">
      <g stroke-dasharray="0,4" stroke-miterlimit="1.45" stroke-dashoffset="2" transform="matrix(0.6434,0,0,0.6434,-36.028,0.6434)" stroke-linecap="round">
        <path fill="none" d="M1137.375 475.406 L1137.375 524.5 L1381.8334 524.5 L1381.8334 483.406"/>
        <path d="M1381.8334 475.406 L1376.8334 487.406 L1381.8334 484.406 L1386.8334 487.406 Z" stroke="none"/>
      </g>
      <g>
        <g stroke-miterlimit="1.45" font-family="sans-serif" transform="matrix(0.6434,0,0,0.6434,-36.028,0.6434)" stroke-linecap="butt">
          <text x="1141.375" xml:space="preserve" y="518.6699" stroke="none">Message d'erreur</text>
        </g>
      </g>
    </g>
    <g id="y.edge.11">
      <g fill="rgb(51,153,102)" stroke-miterlimit="1.45" transform="matrix(0.6434,0,0,0.6434,-36.028,0.6434)" stroke-linecap="butt" stroke="rgb(51,153,102)">
        <path fill="none" d="M736.6985 178.7308 L796.7007 178.7308"/>
        <path d="M804.7007 178.7308 L792.7007 173.7308 L795.7007 178.7308 L792.7007 183.7308 Z" stroke="none"/>
      </g>
      <g>
        <g fill="rgb(51,153,102)" stroke-miterlimit="1.45" font-family="sans-serif" transform="matrix(0.6434,0,0,0.6434,-36.028,0.6434)" stroke-linecap="butt" stroke="rgb(51,153,102)">
          <text x="762.0303" xml:space="preserve" y="171.9007" stroke="none">OK</text>
        </g>
      </g>
    </g>
    <g id="y.edge.7">
      <g fill="red" stroke-miterlimit="1.45" transform="matrix(0.6434,0,0,0.6434,-36.028,0.6434)" stroke-linecap="butt" stroke="red">
        <path fill="none" d="M892.9167 147.2883 L892.9167 46.0961 L866.2563 46.0961"/>
        <path d="M858.2563 46.0961 L870.2563 51.0961 L867.2563 46.0961 L870.2563 41.0961 Z" stroke="none"/>
      </g>
      <g>
        <g fill="red" stroke-miterlimit="1.45" font-family="sans-serif" transform="matrix(0.6434,0,0,0.6434,-36.028,0.6434)" stroke-linecap="butt" stroke="red">
          <text x="871.6022" xml:space="preserve" y="60.2348" stroke="none">KO</text>
        </g>
      </g>
    </g>
    <g id="y.edge.9">
      <g fill="red" stroke-miterlimit="1.45" transform="matrix(0.6434,0,0,0.6434,-36.028,0.6434)" stroke-linecap="butt" stroke="red">
        <path fill="none" d="M648.4583 147.2883 L648.4583 46.0961 L673.7311 46.0961"/>
        <path d="M681.7311 46.0961 L669.7311 41.0961 L672.7311 46.0961 L669.7311 51.0961 Z" stroke="none"/>
      </g>
      <g>
        <g fill="red" stroke-miterlimit="1.45" font-family="sans-serif" transform="matrix(0.6434,0,0,0.6434,-36.028,0.6434)" stroke-linecap="butt" stroke="red">
          <text x="652.4583" xml:space="preserve" y="60.2348" stroke="none">KO</text>
        </g>
      </g>
    </g>
    <g id="y.edge.4">
      <g stroke-linecap="butt" transform="matrix(0.6434,0,0,0.6434,-36.028,0.6434)" stroke-miterlimit="1.45">
        <path fill="none" d="M681.7615 311.3654 L404 311.3654 L404 404.5576"/>
        <path d="M404 412.5576 L409 400.5576 L404 403.5576 L399 400.5576 Z" stroke="none"/>
      </g>
    </g>
    <g id="y.edge.6">
      <g fill="red" stroke-miterlimit="1.45" transform="matrix(0.6434,0,0,0.6434,-36.028,0.6434)" stroke-linecap="butt" stroke="red">
        <path fill="none" d="M396.868 149.8141 L396.5 46.0961 L673.777 46.0961"/>
        <path d="M681.777 46.0961 L669.777 41.0961 L672.777 46.0961 L669.777 51.0961 Z" stroke="none"/>
      </g>
      <g>
        <g fill="red" stroke-miterlimit="1.45" font-family="sans-serif" transform="matrix(0.6434,0,0,0.6434,-36.028,0.6434)" stroke-linecap="butt" stroke="red">
          <text x="400.5673" xml:space="preserve" y="60.2348" stroke="none">KO</text>
        </g>
      </g>
    </g>
    <g id="y.edge.10">
      <g fill="rgb(51,153,102)" stroke-miterlimit="1.45" transform="matrix(0.6434,0,0,0.6434,-36.028,0.6434)" stroke-linecap="butt" stroke="rgb(51,153,102)">
        <path fill="none" d="M492.2401 178.7308 L552.2424 178.7308"/>
        <path d="M560.2424 178.7308 L548.2424 173.7308 L551.2424 178.7308 L548.2424 183.7308 Z" stroke="none"/>
      </g>
      <g>
        <g fill="rgb(51,153,102)" stroke-miterlimit="1.45" font-family="sans-serif" transform="matrix(0.6434,0,0,0.6434,-36.028,0.6434)" stroke-linecap="butt" stroke="rgb(51,153,102)">
          <text x="530.7752" xml:space="preserve" y="171.9007" stroke="none">OK</text>
        </g>
      </g>
    </g>
    <g id="y.edge.12">
      <g fill="rgb(51,153,102)" stroke-miterlimit="1.45" transform="matrix(0.6434,0,0,0.6434,-36.028,0.6434)" stroke-linecap="butt" stroke="rgb(51,153,102)">
        <path fill="none" d="M981.1448 178.7308 L1041.151 178.7308"/>
        <path d="M1049.151 178.7308 L1037.151 173.7308 L1040.151 178.7308 L1037.151 183.7308 Z" stroke="none"/>
      </g>
      <g>
        <g fill="rgb(51,153,102)" stroke-miterlimit="1.45" font-family="sans-serif" transform="matrix(0.6434,0,0,0.6434,-36.028,0.6434)" stroke-linecap="butt" stroke="rgb(51,153,102)">
          <text x="1019.6919" xml:space="preserve" y="171.9007" stroke="none">OK</text>
        </g>
      </g>
    </g>
    <g id="y.edge.5">
      <g fill="rgb(51,153,102)" stroke-miterlimit="1.45" transform="matrix(0.6434,0,0,0.6434,-36.028,0.6434)" stroke-linecap="butt" stroke="rgb(51,153,102)">
        <path fill="none" d="M1137.375 210.1732 L1137.375 311.3654 L866.2112 311.3654"/>
        <path d="M858.2112 311.3654 L870.2112 316.3654 L867.2112 311.3654 L870.2112 306.3654 Z" stroke="none"/>
      </g>
      <g>
        <g fill="rgb(51,153,102)" stroke-miterlimit="1.45" font-family="sans-serif" transform="matrix(0.6434,0,0,0.6434,-36.028,0.6434)" stroke-linecap="butt" stroke="rgb(51,153,102)">
          <text x="1117.0605" xml:space="preserve" y="304.5353" stroke="none">OK</text>
        </g>
      </g>
    </g>
    <g id="y.edge.8">
      <g fill="red" stroke-miterlimit="1.45" transform="matrix(0.6434,0,0,0.6434,-36.028,0.6434)" stroke-linecap="butt" stroke="red">
        <path fill="none" d="M1137.375 147.2883 L1137.375 46.0961 L866.2523 46.0961"/>
        <path d="M858.2523 46.0961 L870.2523 51.0961 L867.2523 46.0961 L870.2523 41.0961 Z" stroke="none"/>
      </g>
      <g>
        <g fill="red" stroke-miterlimit="1.45" font-family="sans-serif" transform="matrix(0.6434,0,0,0.6434,-36.028,0.6434)" stroke-linecap="butt" stroke="red">
          <text x="1117.0605" xml:space="preserve" y="61.2348" stroke="none">KO</text>
        </g>
      </g>
    </g>
    <g id="y.edge.13">
      <g stroke-linecap="butt" transform="matrix(0.6434,0,0,0.6434,-36.028,0.6434)" stroke-miterlimit="1.45">
        <path fill="none" d="M247.7818 178.7308 L307.784 178.7308"/>
        <path d="M315.784 178.7308 L303.784 173.7308 L306.784 178.7308 L303.784 183.7308 Z" stroke="none"/>
      </g>
    </g>
  </g>
</svg>
