<?xml version="1.0" standalone="no"?>
<svg width="458" height="144" viewBox="-8 -86 458 144 " xmlns="http://www.w3.org/2000/svg" version="1.1">
<defs><style type="text/css">.terminal_rect{fill:rgb(206,255,206);stroke:black;stroke-width:2;}.terminal_text{fill:black;font-family:Verdana,Sans-serif;text-anchor:middle;font-size:14px;}.symbol_rect{fill:rgb(206,255,206);stroke:black;stroke-width:2;}.symbol_text{fill:black;font-family:Verdana,Sans-serif;font-weight:bold;font-style:italic;text-anchor:middle;font-size:14px;}.path{fill:none;stroke:black;stroke-width:2;}.rule_text{fill:black;font-family:Verdana,Sans-serif;font-weight:bold;font-size:14px;}.rule_path_edge{fill:none;stroke:black;stroke-width:3;}</style></defs>
<text class="rule_text" x="0" y="-64" >funcInputs:</text>
<rect class="symbol_rect" x="30" y="-14" width="106" height="28" rx="1" />
<text class="symbol_text" x="83" y="4" >funcInput</text>
<rect class="terminal_rect" x="208" y="-14" width="26" height="28" rx="28" />
<text class="terminal_text" x="221" y="4" >,</text>
<rect class="symbol_rect" x="258" y="-14" width="106" height="28" rx="1" />
<text class="symbol_text" x="311" y="4" >funcInput</text>
<path class="path" d="M234 0 L258 0" />
<path class="path" d="M208 0 L184 0 M196 0 Q184 0 184 -12 L184 -36 Q184 -48 196 -48 L376 -48 Q388 -48 388 -36 L388 -12 Q388 0 376 0 L364 0 L388 0" />
<path class="path" d="M208 0 L160 0 Q172 0 172 12 L172 24 Q172 36 184 36 L388 36 Q400 36 400 24 L400 12 Q400 0 412 0 L364 0 M160 0 L184 0 M388 0 L412 0" />
<path class="path" d="M136 0 L160 0" />
<path class="path" d="M0 0 L30 0 M442 0 L412 0" />
<path class="rule_path_edge" d="M0 -6 L0 6 M442 -6 L442 6" />
</svg>
