<?xml version="1.0" standalone="no"?>
<svg width="478" height="144" viewBox="-8 -86 478 144 " xmlns="http://www.w3.org/2000/svg" version="1.1">
<defs><style type="text/css">.terminal_rect{fill:rgb(206,255,206);stroke:black;stroke-width:2;}.terminal_text{fill:black;font-family:Verdana,Sans-serif;text-anchor:middle;font-size:14px;}.symbol_rect{fill:rgb(206,255,206);stroke:black;stroke-width:2;}.symbol_text{fill:black;font-family:Verdana,Sans-serif;font-weight:bold;font-style:italic;text-anchor:middle;font-size:14px;}.path{fill:none;stroke:black;stroke-width:2;}.rule_text{fill:black;font-family:Verdana,Sans-serif;font-weight:bold;font-size:14px;}.rule_path_edge{fill:none;stroke:black;stroke-width:3;}</style></defs>
<text class="rule_text" x="0" y="-64" >funcOutputs:</text>
<rect class="symbol_rect" x="30" y="-14" width="116" height="28" rx="1" />
<text class="symbol_text" x="88" y="4" >funcOutput</text>
<rect class="terminal_rect" x="218" y="-14" width="26" height="28" rx="28" />
<text class="terminal_text" x="231" y="4" >,</text>
<rect class="symbol_rect" x="268" y="-14" width="116" height="28" rx="1" />
<text class="symbol_text" x="326" y="4" >funcOutput</text>
<path class="path" d="M244 0 L268 0" />
<path class="path" d="M218 0 L194 0 M206 0 Q194 0 194 -12 L194 -36 Q194 -48 206 -48 L396 -48 Q408 -48 408 -36 L408 -12 Q408 0 396 0 L384 0 L408 0" />
<path class="path" d="M218 0 L170 0 Q182 0 182 12 L182 24 Q182 36 194 36 L408 36 Q420 36 420 24 L420 12 Q420 0 432 0 L384 0 M170 0 L194 0 M408 0 L432 0" />
<path class="path" d="M146 0 L170 0" />
<path class="path" d="M0 0 L30 0 M462 0 L432 0" />
<path class="rule_path_edge" d="M0 -6 L0 6 M462 -6 L462 6" />
</svg>
