<?xml version="1.0" standalone="no"?>
<svg width="424" height="352" viewBox="-8 -58 424 352 " xmlns="http://www.w3.org/2000/svg" version="1.1">
<defs><style type="text/css">.terminal_rect{fill:rgb(206,255,206);stroke:black;stroke-width:2;}.terminal_text{fill:black;font-family:Verdana,Sans-serif;text-anchor:middle;font-size:14px;}.symbol_rect{fill:rgb(206,255,206);stroke:black;stroke-width:2;}.symbol_text{fill:black;font-family:Verdana,Sans-serif;font-weight:bold;font-style:italic;text-anchor:middle;font-size:14px;}.path{fill:none;stroke:black;stroke-width:2;}.rule_text{fill:black;font-family:Verdana,Sans-serif;font-weight:bold;font-size:14px;}.rule_path_edge{fill:none;stroke:black;stroke-width:3;}</style></defs>
<text class="rule_text" x="0" y="-36" >funcInput:</text>
<rect class="symbol_rect" x="66" y="-14" width="206" height="28" rx="1" />
<text class="symbol_text" x="169" y="4" >sourceAttributeName</text>
<rect class="symbol_rect" x="66" y="30" width="206" height="28" rx="1" />
<text class="symbol_text" x="169" y="48" >familyParameterName</text>
<rect class="symbol_rect" x="66" y="74" width="56" height="28" rx="1" />
<text class="symbol_text" x="94" y="92" >text</text>
<rect class="symbol_rect" x="66" y="118" width="146" height="28" rx="1" />
<text class="symbol_text" x="139" y="136" >sourceKeyWord</text>
<rect class="symbol_rect" x="66" y="162" width="136" height="28" rx="1" />
<text class="symbol_text" x="134" y="180" >propertyName</text>
<rect class="terminal_rect" x="66" y="206" width="26" height="28" rx="28" />
<text class="terminal_text" x="79" y="224" >{</text>
<rect class="symbol_rect" x="116" y="206" width="176" height="28" rx="1" />
<text class="symbol_text" x="204" y="224" >appParameterName</text>
<rect class="terminal_rect" x="316" y="206" width="26" height="28" rx="28" />
<text class="terminal_text" x="329" y="224" >}</text>
<path class="path" d="M92 220 L116 220" />
<path class="path" d="M292 220 L316 220" />
<rect class="terminal_rect" x="66" y="250" width="26" height="28" rx="28" />
<text class="terminal_text" x="79" y="268" >{</text>
<rect class="symbol_rect" x="116" y="250" width="116" height="28" rx="1" />
<text class="symbol_text" x="174" y="268" >familyName</text>
<rect class="terminal_rect" x="256" y="250" width="26" height="28" rx="28" />
<text class="terminal_text" x="269" y="268" >}</text>
<path class="path" d="M92 264 L116 264" />
<path class="path" d="M232 264 L256 264" />
<path class="path" d="M30 0 L66 0 M30 0 Q42 0 42 12 M378 0 L272 0 M378 0 Q366 0 366 12" />
<path class="path" d="M54 44 L66 44 M54 44 Q42 44 42 32 L42 12 M354 44 L272 44 M354 44 Q366 44 366 32 L366 12" />
<path class="path" d="M54 88 L66 88 M54 88 Q42 88 42 76 L42 32 M354 88 L122 88 M354 88 Q366 88 366 76 L366 32" />
<path class="path" d="M54 132 L66 132 M54 132 Q42 132 42 120 L42 76 M354 132 L212 132 M354 132 Q366 132 366 120 L366 76" />
<path class="path" d="M54 176 L66 176 M54 176 Q42 176 42 164 L42 120 M354 176 L202 176 M354 176 Q366 176 366 164 L366 120" />
<path class="path" d="M54 220 L66 220 M54 220 Q42 220 42 208 L42 164 M354 220 L342 220 M354 220 Q366 220 366 208 L366 164" />
<path class="path" d="M54 264 L66 264 M54 264 Q42 264 42 252 L42 208 M354 264 L282 264 M354 264 Q366 264 366 252 L366 208" />
<path class="path" d="M0 0 L30 0 M408 0 L378 0" />
<path class="rule_path_edge" d="M0 -6 L0 6 M408 -6 L408 6" />
</svg>
