<?xml version="1.0" standalone="no"?>
<svg width="684" height="132" viewBox="-8 -58 684 132 " xmlns="http://www.w3.org/2000/svg" version="1.1">
<defs><style type="text/css">.terminal_rect{fill:rgb(206,255,206);stroke:black;stroke-width:2;}.terminal_text{fill:black;font-family:Verdana,Sans-serif;text-anchor:middle;font-size:14px;}.symbol_rect{fill:rgb(206,255,206);stroke:black;stroke-width:2;}.symbol_text{fill:black;font-family:Verdana,Sans-serif;font-weight:bold;font-style:italic;text-anchor:middle;font-size:14px;}.path{fill:none;stroke:black;stroke-width:2;}.rule_text{fill:black;font-family:Verdana,Sans-serif;font-weight:bold;font-size:14px;}.rule_path_edge{fill:none;stroke:black;stroke-width:3;}</style></defs>
<text class="rule_text" x="0" y="-36" >inputHelp:</text>
<rect class="symbol_rect" x="30" y="-14" width="96" height="28" rx="1" />
<text class="symbol_text" x="78" y="4" >funcName</text>
<rect class="terminal_rect" x="150" y="-14" width="26" height="28" rx="28" />
<text class="terminal_text" x="163" y="4" >(</text>
<rect class="symbol_rect" x="236" y="-14" width="116" height="28" rx="1" />
<text class="symbol_text" x="294" y="4" >funcInputs</text>
<path class="path" d="M236 44 L252 44" />
<path class="path" d="M200 0 L236 0 M200 0 Q212 0 212 12 M388 0 L352 0 M388 0 Q376 0 376 12" />
<path class="path" d="M224 44 L236 44 M224 44 Q212 44 212 32 L212 12 M364 44 L252 44 M364 44 Q376 44 376 32 L376 12" />
<rect class="terminal_rect" x="412" y="-14" width="26" height="28" rx="28" />
<text class="terminal_text" x="425" y="4" >)</text>
<rect class="terminal_rect" x="462" y="-14" width="26" height="28" rx="28" />
<text class="terminal_text" x="475" y="4" >:</text>
<rect class="symbol_rect" x="512" y="-14" width="126" height="28" rx="1" />
<text class="symbol_text" x="575" y="4" >funcOutputs</text>
<path class="path" d="M126 0 L150 0" />
<path class="path" d="M176 0 L200 0" />
<path class="path" d="M388 0 L412 0" />
<path class="path" d="M438 0 L462 0" />
<path class="path" d="M488 0 L512 0" />
<path class="path" d="M0 0 L30 0 M668 0 L638 0" />
<path class="rule_path_edge" d="M0 -6 L0 6 M668 -6 L668 6" />
</svg>
