<?xml version="1.0" standalone="no"?>
<svg width="534" height="352" viewBox="-8 -58 534 352 " xmlns="http://www.w3.org/2000/svg" version="1.1">
<defs><style type="text/css">.terminal_rect{fill:rgb(206,255,206);stroke:black;stroke-width:2;}.terminal_text{fill:black;font-family:Verdana,Sans-serif;text-anchor:middle;font-size:14px;}.symbol_rect{fill:rgb(206,255,206);stroke:black;stroke-width:2;}.symbol_text{fill:black;font-family:Verdana,Sans-serif;font-weight:bold;font-style:italic;text-anchor:middle;font-size:14px;}.path{fill:none;stroke:black;stroke-width:2;}.rule_text{fill:black;font-family:Verdana,Sans-serif;font-weight:bold;font-size:14px;}.rule_path_edge{fill:none;stroke:black;stroke-width:3;}</style></defs>
<text class="rule_text" x="0" y="-36" >sourceKeyWord:</text>
<rect class="terminal_rect" x="66" y="-14" width="36" height="28" rx="28" />
<text class="terminal_text" x="84" y="4" >CT</text>
<rect class="terminal_rect" x="66" y="30" width="36" height="28" rx="28" />
<text class="terminal_text" x="84" y="48" >CT</text>
<rect class="terminal_rect" x="126" y="30" width="26" height="28" rx="28" />
<text class="terminal_text" x="139" y="48" >[</text>
<rect class="symbol_rect" x="176" y="30" width="226" height="28" rx="1" />
<text class="symbol_text" x="289" y="48" >relationAttributeName</text>
<rect class="terminal_rect" x="426" y="30" width="26" height="28" rx="28" />
<text class="terminal_text" x="439" y="48" >]</text>
<path class="path" d="M102 44 L126 44" />
<path class="path" d="M152 44 L176 44" />
<path class="path" d="M402 44 L426 44" />
<rect class="terminal_rect" x="66" y="74" width="26" height="28" rx="28" />
<text class="terminal_text" x="79" y="92" >D</text>
<rect class="terminal_rect" x="66" y="118" width="26" height="28" rx="28" />
<text class="terminal_text" x="79" y="136" >I</text>
<rect class="terminal_rect" x="66" y="162" width="26" height="28" rx="28" />
<text class="terminal_text" x="79" y="180" >K</text>
<rect class="terminal_rect" x="66" y="206" width="26" height="28" rx="28" />
<text class="terminal_text" x="79" y="224" >T</text>
<rect class="terminal_rect" x="66" y="250" width="26" height="28" rx="28" />
<text class="terminal_text" x="79" y="268" >A</text>
<path class="path" d="M30 0 L66 0 M30 0 Q42 0 42 12 M488 0 L102 0 M488 0 Q476 0 476 12" />
<path class="path" d="M54 44 L66 44 M54 44 Q42 44 42 32 L42 12 M464 44 L452 44 M464 44 Q476 44 476 32 L476 12" />
<path class="path" d="M54 88 L66 88 M54 88 Q42 88 42 76 L42 32 M464 88 L92 88 M464 88 Q476 88 476 76 L476 32" />
<path class="path" d="M54 132 L66 132 M54 132 Q42 132 42 120 L42 76 M464 132 L92 132 M464 132 Q476 132 476 120 L476 76" />
<path class="path" d="M54 176 L66 176 M54 176 Q42 176 42 164 L42 120 M464 176 L92 176 M464 176 Q476 176 476 164 L476 120" />
<path class="path" d="M54 220 L66 220 M54 220 Q42 220 42 208 L42 164 M464 220 L92 220 M464 220 Q476 220 476 208 L476 164" />
<path class="path" d="M54 264 L66 264 M54 264 Q42 264 42 252 L42 208 M464 264 L92 264 M464 264 Q476 264 476 252 L476 208" />
<path class="path" d="M0 0 L30 0 M518 0 L488 0" />
<path class="rule_path_edge" d="M0 -6 L0 6 M518 -6 L518 6" />
</svg>
