<?xml version="1.0" standalone="no"?>
<svg width="806" height="132" viewBox="-8 -58 806 132 " xmlns="http://www.w3.org/2000/svg" version="1.1">
<defs><style type="text/css">.terminal_rect{fill:rgb(206,255,206);stroke:black;stroke-width:2;}.terminal_text{fill:black;font-family:Verdana,Sans-serif;text-anchor:middle;font-size:14px;}.symbol_rect{fill:rgb(206,255,206);stroke:black;stroke-width:2;}.symbol_text{fill:black;font-family:Verdana,Sans-serif;font-weight:bold;font-style:italic;text-anchor:middle;font-size:14px;}.path{fill:none;stroke:black;stroke-width:2;}.rule_text{fill:black;font-family:Verdana,Sans-serif;font-weight:bold;font-size:14px;}.rule_path_edge{fill:none;stroke:black;stroke-width:3;}</style></defs>
<text class="rule_text" x="0" y="-36" >constraint:</text>
<rect class="symbol_rect" x="66" y="-14" width="126" height="28" rx="1" />
<text class="symbol_text" x="129" y="4" >staticClass</text>
<path class="path" d="M66 44 L82 44" />
<path class="path" d="M30 0 L66 0 M30 0 Q42 0 42 12 M228 0 L192 0 M228 0 Q216 0 216 12" />
<path class="path" d="M54 44 L66 44 M54 44 Q42 44 42 32 L42 12 M204 44 L82 44 M204 44 Q216 44 216 32 L216 12" />
<rect class="terminal_rect" x="252" y="-14" width="36" height="28" rx="28" />
<text class="terminal_text" x="270" y="4" >::</text>
<rect class="symbol_rect" x="312" y="-14" width="116" height="28" rx="1" />
<text class="symbol_text" x="370" y="4" >methodName</text>
<rect class="terminal_rect" x="452" y="-14" width="26" height="28" rx="28" />
<text class="terminal_text" x="465" y="4" >(</text>
<rect class="symbol_rect" x="538" y="-14" width="136" height="28" rx="1" />
<text class="symbol_text" x="606" y="4" >methodInputs</text>
<path class="path" d="M538 44 L554 44" />
<path class="path" d="M502 0 L538 0 M502 0 Q514 0 514 12 M710 0 L674 0 M710 0 Q698 0 698 12" />
<path class="path" d="M526 44 L538 44 M526 44 Q514 44 514 32 L514 12 M686 44 L554 44 M686 44 Q698 44 698 32 L698 12" />
<rect class="terminal_rect" x="734" y="-14" width="26" height="28" rx="28" />
<text class="terminal_text" x="747" y="4" >)</text>
<path class="path" d="M228 0 L252 0" />
<path class="path" d="M288 0 L312 0" />
<path class="path" d="M428 0 L452 0" />
<path class="path" d="M478 0 L502 0" />
<path class="path" d="M710 0 L734 0" />
<path class="path" d="M0 0 L30 0 M790 0 L760 0" />
<path class="rule_path_edge" d="M0 -6 L0 6 M790 -6 L790 6" />
</svg>
