<?xml version="1.0" standalone="no"?>
<svg width="498" height="144" viewBox="-8 -86 498 144 " xmlns="http://www.w3.org/2000/svg" version="1.1">
<defs><style type="text/css">.terminal_rect{fill:rgb(206,255,206);stroke:black;stroke-width:2;}.terminal_text{fill:black;font-family:Verdana,Sans-serif;text-anchor:middle;font-size:14px;}.symbol_rect{fill:rgb(206,255,206);stroke:black;stroke-width:2;}.symbol_text{fill:black;font-family:Verdana,Sans-serif;font-weight:bold;font-style:italic;text-anchor:middle;font-size:14px;}.path{fill:none;stroke:black;stroke-width:2;}.rule_text{fill:black;font-family:Verdana,Sans-serif;font-weight:bold;font-size:14px;}.rule_path_edge{fill:none;stroke:black;stroke-width:3;}</style></defs>
<text class="rule_text" x="0" y="-64" >methodInputs:</text>
<rect class="symbol_rect" x="30" y="-14" width="126" height="28" rx="1" />
<text class="symbol_text" x="93" y="4" >methodInput</text>
<rect class="terminal_rect" x="228" y="-14" width="26" height="28" rx="28" />
<text class="terminal_text" x="241" y="4" >,</text>
<rect class="symbol_rect" x="278" y="-14" width="126" height="28" rx="1" />
<text class="symbol_text" x="341" y="4" >methodInput</text>
<path class="path" d="M254 0 L278 0" />
<path class="path" d="M228 0 L204 0 M216 0 Q204 0 204 -12 L204 -36 Q204 -48 216 -48 L416 -48 Q428 -48 428 -36 L428 -12 Q428 0 416 0 L404 0 L428 0" />
<path class="path" d="M228 0 L180 0 Q192 0 192 12 L192 24 Q192 36 204 36 L428 36 Q440 36 440 24 L440 12 Q440 0 452 0 L404 0 M180 0 L204 0 M428 0 L452 0" />
<path class="path" d="M156 0 L180 0" />
<path class="path" d="M0 0 L30 0 M482 0 L452 0" />
<path class="rule_path_edge" d="M0 -6 L0 6 M482 -6 L482 6" />
</svg>
