<?xml version="1.0" standalone="no"?>
<svg width="324" height="176" viewBox="-8 -58 324 176 " xmlns="http://www.w3.org/2000/svg" version="1.1">
<defs><style type="text/css">.terminal_rect{fill:rgb(206,255,206);stroke:black;stroke-width:2;}.terminal_text{fill:black;font-family:Verdana,Sans-serif;text-anchor:middle;font-size:14px;}.symbol_rect{fill:rgb(206,255,206);stroke:black;stroke-width:2;}.symbol_text{fill:black;font-family:Verdana,Sans-serif;font-weight:bold;font-style:italic;text-anchor:middle;font-size:14px;}.path{fill:none;stroke:black;stroke-width:2;}.rule_text{fill:black;font-family:Verdana,Sans-serif;font-weight:bold;font-size:14px;}.rule_path_edge{fill:none;stroke:black;stroke-width:3;}</style></defs>
<text class="rule_text" x="0" y="-36" >text:</text>
<rect class="terminal_rect" x="66" y="-14" width="26" height="28" rx="28" />
<text class="terminal_text" x="79" y="4" >&apos;</text>
<rect class="terminal_rect" x="116" y="-14" width="76" height="28" rx="28" />
<text class="terminal_text" x="154" y="4" >&lt;text&gt;</text>
<path class="path" d="M92 0 L116 0" />
<rect class="terminal_rect" x="66" y="30" width="26" height="28" rx="28" />
<text class="terminal_text" x="79" y="48" >&apos;</text>
<rect class="terminal_rect" x="116" y="30" width="76" height="28" rx="28" />
<text class="terminal_text" x="154" y="48" >[^&apos;,]+</text>
<rect class="terminal_rect" x="216" y="30" width="26" height="28" rx="28" />
<text class="terminal_text" x="229" y="48" >&apos;</text>
<path class="path" d="M92 44 L116 44" />
<path class="path" d="M192 44 L216 44" />
<rect class="terminal_rect" x="66" y="74" width="26" height="28" rx="28" />
<text class="terminal_text" x="79" y="92" >&quot;</text>
<rect class="terminal_rect" x="116" y="74" width="76" height="28" rx="28" />
<text class="terminal_text" x="154" y="92" >[^&quot;,]+</text>
<rect class="terminal_rect" x="216" y="74" width="26" height="28" rx="28" />
<text class="terminal_text" x="229" y="92" >&quot;</text>
<path class="path" d="M92 88 L116 88" />
<path class="path" d="M192 88 L216 88" />
<path class="path" d="M30 0 L66 0 M30 0 Q42 0 42 12 M278 0 L192 0 M278 0 Q266 0 266 12" />
<path class="path" d="M54 44 L66 44 M54 44 Q42 44 42 32 L42 12 M254 44 L242 44 M254 44 Q266 44 266 32 L266 12" />
<path class="path" d="M54 88 L66 88 M54 88 Q42 88 42 76 L42 32 M254 88 L242 88 M254 88 Q266 88 266 76 L266 32" />
<path class="path" d="M0 0 L30 0 M308 0 L278 0" />
<path class="rule_path_edge" d="M0 -6 L0 6 M308 -6 L308 6" />
</svg>
