<?xml version="1.0" encoding="UTF-8" standalone="yes"?><svg xmlns="http://www.w3.org/2000/svg" xmlns:xlink="http://www.w3.org/1999/xlink" height="713pt" style="width:494px;height:713px;" version="1.1" viewBox="0 0 494 713" width="494pt"><defs><filter height="300%" id="f1" width="300%" x="-1" y="-1"><feGaussianBlur result="blurOut" stdDeviation="2"/><feColorMatrix in="blurOut" result="blurOut2" type="matrix" values="0 0 0 0 0 0 0 0 0 0 0 0 0 0 0 0 0 0 .4 0"/><feOffset dx="4" dy="4" in="blurOut2" result="blurOut3"/><feBlend in="SourceGraphic" in2="blurOut3" mode="normal"/></filter></defs><g><rect fill="#FEFECE" filter="url(#f1)" height="48" style="stroke: #A80036; stroke-width: 1.5;" width="69" x="163" y="8"/><ellipse cx="178" cy="24" fill="#ADD1B2" rx="11" ry="11" style="stroke: #A80036; stroke-width: 1.0;"/><path d="M180.9688,29.6406 Q180.3906,29.9375 179.75,30.0859 Q179.1094,30.2344 178.4063,30.2344 Q175.9063,30.2344 174.5859,28.5859 Q173.2656,26.9375 173.2656,23.8125 Q173.2656,20.6875 174.5859,19.0313 Q175.9063,17.375 178.4063,17.375 Q179.1094,17.375 179.7578,17.5313 Q180.4063,17.6875 180.9688,17.9844 L180.9688,20.7031 Q180.3438,20.125 179.75,19.8516 Q179.1563,19.5781 178.5313,19.5781 Q177.1875,19.5781 176.5,20.6484 Q175.8125,21.7188 175.8125,23.8125 Q175.8125,25.9063 176.5,26.9766 Q177.1875,28.0469 178.5313,28.0469 Q179.1563,28.0469 179.75,27.7734 Q180.3438,27.5 180.9688,26.9219 L180.9688,29.6406 Z "/><text fill="#000000" font-size="12" lengthAdjust="spacingAndGlyphs" textLength="37" x="192" y="29.0156">DbObj</text><line style="stroke: #A80036; stroke-width: 1.5;" x1="164" x2="231" y1="40" y2="40"/><line style="stroke: #A80036; stroke-width: 1.5;" x1="164" x2="231" y1="48" y2="48"/><rect fill="#FEFECE" filter="url(#f1)" height="48" style="stroke: #A80036; stroke-width: 1.5;" width="87" x="154" y="116"/><ellipse cx="169" cy="132" fill="#ADD1B2" rx="11" ry="11" style="stroke: #A80036; stroke-width: 1.0;"/><path d="M171.9688,137.6406 Q171.3906,137.9375 170.75,138.0859 Q170.1094,138.2344 169.4063,138.2344 Q166.9063,138.2344 165.5859,136.5859 Q164.2656,134.9375 164.2656,131.8125 Q164.2656,128.6875 165.5859,127.0313 Q166.9063,125.375 169.4063,125.375 Q170.1094,125.375 170.7578,125.5313 Q171.4063,125.6875 171.9688,125.9844 L171.9688,128.7031 Q171.3438,128.125 170.75,127.8516 Q170.1563,127.5781 169.5313,127.5781 Q168.1875,127.5781 167.5,128.6484 Q166.8125,129.7188 166.8125,131.8125 Q166.8125,133.9063 167.5,134.9766 Q168.1875,136.0469 169.5313,136.0469 Q170.1563,136.0469 170.75,135.7734 Q171.3438,135.5 171.9688,134.9219 L171.9688,137.6406 Z "/><text fill="#000000" font-size="12" lengthAdjust="spacingAndGlyphs" textLength="55" x="183" y="137.0156">DocLDAP</text><line style="stroke: #A80036; stroke-width: 1.5;" x1="155" x2="240" y1="148" y2="148"/><line style="stroke: #A80036; stroke-width: 1.5;" x1="155" x2="240" y1="156" y2="156"/><rect fill="#FEFECE" filter="url(#f1)" height="48" style="stroke: #A80036; stroke-width: 1.5;" width="77" x="159" y="224"/><ellipse cx="174" cy="240" fill="#ADD1B2" rx="11" ry="11" style="stroke: #A80036; stroke-width: 1.0;"/><path d="M176.9688,245.6406 Q176.3906,245.9375 175.75,246.0859 Q175.1094,246.2344 174.4063,246.2344 Q171.9063,246.2344 170.5859,244.5859 Q169.2656,242.9375 169.2656,239.8125 Q169.2656,236.6875 170.5859,235.0313 Q171.9063,233.375 174.4063,233.375 Q175.1094,233.375 175.7578,233.5313 Q176.4063,233.6875 176.9688,233.9844 L176.9688,236.7031 Q176.3438,236.125 175.75,235.8516 Q175.1563,235.5781 174.5313,235.5781 Q173.1875,235.5781 172.5,236.6484 Q171.8125,237.7188 171.8125,239.8125 Q171.8125,241.9063 172.5,242.9766 Q173.1875,244.0469 174.5313,244.0469 Q175.1563,244.0469 175.75,243.7734 Q176.3438,243.5 176.9688,242.9219 L176.9688,245.6406 Z "/><text fill="#000000" font-size="12" lengthAdjust="spacingAndGlyphs" textLength="45" x="188" y="245.0156">DocCtrl</text><line style="stroke: #A80036; stroke-width: 1.5;" x1="160" x2="235" y1="256" y2="256"/><line style="stroke: #A80036; stroke-width: 1.5;" x1="160" x2="235" y1="264" y2="264"/><rect fill="#FEFECE" filter="url(#f1)" height="48" style="stroke: #A80036; stroke-width: 1.5;" width="56" x="169" y="332"/><ellipse cx="184" cy="348" fill="#ADD1B2" rx="11" ry="11" style="stroke: #A80036; stroke-width: 1.0;"/><path d="M186.9688,353.6406 Q186.3906,353.9375 185.75,354.0859 Q185.1094,354.2344 184.4063,354.2344 Q181.9063,354.2344 180.5859,352.5859 Q179.2656,350.9375 179.2656,347.8125 Q179.2656,344.6875 180.5859,343.0313 Q181.9063,341.375 184.4063,341.375 Q185.1094,341.375 185.7578,341.5313 Q186.4063,341.6875 186.9688,341.9844 L186.9688,344.7031 Q186.3438,344.125 185.75,343.8516 Q185.1563,343.5781 184.5313,343.5781 Q183.1875,343.5781 182.5,344.6484 Q181.8125,345.7188 181.8125,347.8125 Q181.8125,349.9063 182.5,350.9766 Q183.1875,352.0469 184.5313,352.0469 Q185.1563,352.0469 185.75,351.7734 Q186.3438,351.5 186.9688,350.9219 L186.9688,353.6406 Z "/><text fill="#000000" font-size="12" lengthAdjust="spacingAndGlyphs" textLength="24" x="198" y="353.0156">Doc</text><line style="stroke: #A80036; stroke-width: 1.5;" x1="170" x2="224" y1="364" y2="364"/><line style="stroke: #A80036; stroke-width: 1.5;" x1="170" x2="224" y1="372" y2="372"/><rect fill="#FEFECE" filter="url(#f1)" height="48" style="stroke: #A80036; stroke-width: 1.5;" width="66" x="14" y="440"/><ellipse cx="29" cy="456" fill="#ADD1B2" rx="11" ry="11" style="stroke: #A80036; stroke-width: 1.0;"/><path d="M31.9688,461.6406 Q31.3906,461.9375 30.75,462.0859 Q30.1094,462.2344 29.4063,462.2344 Q26.9063,462.2344 25.5859,460.5859 Q24.2656,458.9375 24.2656,455.8125 Q24.2656,452.6875 25.5859,451.0313 Q26.9063,449.375 29.4063,449.375 Q30.1094,449.375 30.7578,449.5313 Q31.4063,449.6875 31.9688,449.9844 L31.9688,452.7031 Q31.3438,452.125 30.75,451.8516 Q30.1563,451.5781 29.5313,451.5781 Q28.1875,451.5781 27.5,452.6484 Q26.8125,453.7188 26.8125,455.8125 Q26.8125,457.9063 27.5,458.9766 Q28.1875,460.0469 29.5313,460.0469 Q30.1563,460.0469 30.75,459.7734 Q31.3438,459.5 31.9688,458.9219 L31.9688,461.6406 Z "/><text fill="#000000" font-size="12" lengthAdjust="spacingAndGlyphs" textLength="34" x="43" y="461.0156">PFam</text><line style="stroke: #A80036; stroke-width: 1.5;" x1="15" x2="79" y1="472" y2="472"/><line style="stroke: #A80036; stroke-width: 1.5;" x1="15" x2="79" y1="480" y2="480"/><rect fill="#FEFECE" filter="url(#f1)" height="48" style="stroke: #A80036; stroke-width: 1.5;" width="82" x="6" y="548"/><ellipse cx="21" cy="564" fill="#ADD1B2" rx="11" ry="11" style="stroke: #A80036; stroke-width: 1.0;"/><path d="M23.9688,569.6406 Q23.3906,569.9375 22.75,570.0859 Q22.1094,570.2344 21.4063,570.2344 Q18.9063,570.2344 17.5859,568.5859 Q16.2656,566.9375 16.2656,563.8125 Q16.2656,560.6875 17.5859,559.0313 Q18.9063,557.375 21.4063,557.375 Q22.1094,557.375 22.7578,557.5313 Q23.4063,557.6875 23.9688,557.9844 L23.9688,560.7031 Q23.3438,560.125 22.75,559.8516 Q22.1563,559.5781 21.5313,559.5781 Q20.1875,559.5781 19.5,560.6484 Q18.8125,561.7188 18.8125,563.8125 Q18.8125,565.9063 19.5,566.9766 Q20.1875,568.0469 21.5313,568.0469 Q22.1563,568.0469 22.75,567.7734 Q23.3438,567.5 23.9688,566.9219 L23.9688,569.6406 Z "/><text fill="#000000" font-size="12" lengthAdjust="spacingAndGlyphs" textLength="50" x="35" y="569.0156">DocFam</text><line style="stroke: #A80036; stroke-width: 1.5;" x1="7" x2="87" y1="580" y2="580"/><line style="stroke: #A80036; stroke-width: 1.5;" x1="7" x2="87" y1="588" y2="588"/><rect fill="#FEFECE" filter="url(#f1)" height="48" style="stroke: #A80036; stroke-width: 1.5;" width="64" x="115" y="440"/><ellipse cx="130" cy="456" fill="#ADD1B2" rx="11" ry="11" style="stroke: #A80036; stroke-width: 1.0;"/><path d="M132.9688,461.6406 Q132.3906,461.9375 131.75,462.0859 Q131.1094,462.2344 130.4063,462.2344 Q127.9063,462.2344 126.5859,460.5859 Q125.2656,458.9375 125.2656,455.8125 Q125.2656,452.6875 126.5859,451.0313 Q127.9063,449.375 130.4063,449.375 Q131.1094,449.375 131.7578,449.5313 Q132.4063,449.6875 132.9688,449.9844 L132.9688,452.7031 Q132.3438,452.125 131.75,451.8516 Q131.1563,451.5781 130.5313,451.5781 Q129.1875,451.5781 128.5,452.6484 Q127.8125,453.7188 127.8125,455.8125 Q127.8125,457.9063 128.5,458.9766 Q129.1875,460.0469 130.5313,460.0469 Q131.1563,460.0469 131.75,459.7734 Q132.3438,459.5 132.9688,458.9219 L132.9688,461.6406 Z "/><text fill="#000000" font-size="12" lengthAdjust="spacingAndGlyphs" textLength="32" x="144" y="461.0156">PDoc</text><line style="stroke: #A80036; stroke-width: 1.5;" x1="116" x2="178" y1="472" y2="472"/><line style="stroke: #A80036; stroke-width: 1.5;" x1="116" x2="178" y1="480" y2="480"/><rect fill="#FEFECE" filter="url(#f1)" height="48" style="stroke: #A80036; stroke-width: 1.5;" width="67" x="214" y="440"/><ellipse cx="229" cy="456" fill="#ADD1B2" rx="11" ry="11" style="stroke: #A80036; stroke-width: 1.0;"/><path d="M231.9688,461.6406 Q231.3906,461.9375 230.75,462.0859 Q230.1094,462.2344 229.4063,462.2344 Q226.9063,462.2344 225.5859,460.5859 Q224.2656,458.9375 224.2656,455.8125 Q224.2656,452.6875 225.5859,451.0313 Q226.9063,449.375 229.4063,449.375 Q230.1094,449.375 230.7578,449.5313 Q231.4063,449.6875 231.9688,449.9844 L231.9688,452.7031 Q231.3438,452.125 230.75,451.8516 Q230.1563,451.5781 229.5313,451.5781 Q228.1875,451.5781 227.5,452.6484 Q226.8125,453.7188 226.8125,455.8125 Q226.8125,457.9063 227.5,458.9766 Q228.1875,460.0469 229.5313,460.0469 Q230.1563,460.0469 230.75,459.7734 Q231.3438,459.5 231.9688,458.9219 L231.9688,461.6406 Z "/><text fill="#000000" font-size="12" lengthAdjust="spacingAndGlyphs" textLength="35" x="243" y="461.0156">WDoc</text><line style="stroke: #A80036; stroke-width: 1.5;" x1="215" x2="280" y1="472" y2="472"/><line style="stroke: #A80036; stroke-width: 1.5;" x1="215" x2="280" y1="480" y2="480"/><rect fill="#FEFECE" filter="url(#f1)" height="48" style="stroke: #A80036; stroke-width: 1.5;" width="117" x="315" y="440"/><ellipse cx="330" cy="456" fill="#ADD1B2" rx="11" ry="11" style="stroke: #A80036; stroke-width: 1.0;"/><path d="M332.9688,461.6406 Q332.3906,461.9375 331.75,462.0859 Q331.1094,462.2344 330.4063,462.2344 Q327.9063,462.2344 326.5859,460.5859 Q325.2656,458.9375 325.2656,455.8125 Q325.2656,452.6875 326.5859,451.0313 Q327.9063,449.375 330.4063,449.375 Q331.1094,449.375 331.7578,449.5313 Q332.4063,449.6875 332.9688,449.9844 L332.9688,452.7031 Q332.3438,452.125 331.75,451.8516 Q331.1563,451.5781 330.5313,451.5781 Q329.1875,451.5781 328.5,452.6484 Q327.8125,453.7188 327.8125,455.8125 Q327.8125,457.9063 328.5,458.9766 Q329.1875,460.0469 330.5313,460.0469 Q331.1563,460.0469 331.75,459.7734 Q332.3438,459.5 332.9688,458.9219 L332.9688,461.6406 Z "/><text fill="#000000" font-size="12" lengthAdjust="spacingAndGlyphs" textLength="85" x="344" y="461.0156">DocCollection</text><line style="stroke: #A80036; stroke-width: 1.5;" x1="316" x2="431" y1="472" y2="472"/><line style="stroke: #A80036; stroke-width: 1.5;" x1="316" x2="431" y1="480" y2="480"/><rect fill="#FEFECE" filter="url(#f1)" height="48" style="stroke: #A80036; stroke-width: 1.5;" width="57" x="286" y="548"/><ellipse cx="301" cy="564" fill="#ADD1B2" rx="11" ry="11" style="stroke: #A80036; stroke-width: 1.0;"/><path d="M303.9688,569.6406 Q303.3906,569.9375 302.75,570.0859 Q302.1094,570.2344 301.4063,570.2344 Q298.9063,570.2344 297.5859,568.5859 Q296.2656,566.9375 296.2656,563.8125 Q296.2656,560.6875 297.5859,559.0313 Q298.9063,557.375 301.4063,557.375 Q302.1094,557.375 302.7578,557.5313 Q303.4063,557.6875 303.9688,557.9844 L303.9688,560.7031 Q303.3438,560.125 302.75,559.8516 Q302.1563,559.5781 301.5313,559.5781 Q300.1875,559.5781 299.5,560.6484 Q298.8125,561.7188 298.8125,563.8125 Q298.8125,565.9063 299.5,566.9766 Q300.1875,568.0469 301.5313,568.0469 Q302.1563,568.0469 302.75,567.7734 Q303.3438,567.5 303.9688,566.9219 L303.9688,569.6406 Z "/><text fill="#000000" font-size="12" lengthAdjust="spacingAndGlyphs" textLength="25" x="315" y="569.0156">PDir</text><line style="stroke: #A80036; stroke-width: 1.5;" x1="287" x2="342" y1="580" y2="580"/><line style="stroke: #A80036; stroke-width: 1.5;" x1="287" x2="342" y1="588" y2="588"/><rect fill="#FEFECE" filter="url(#f1)" height="48" style="stroke: #A80036; stroke-width: 1.5;" width="49" x="290" y="656"/><ellipse cx="305" cy="672" fill="#ADD1B2" rx="11" ry="11" style="stroke: #A80036; stroke-width: 1.0;"/><path d="M307.9688,677.6406 Q307.3906,677.9375 306.75,678.0859 Q306.1094,678.2344 305.4063,678.2344 Q302.9063,678.2344 301.5859,676.5859 Q300.2656,674.9375 300.2656,671.8125 Q300.2656,668.6875 301.5859,667.0313 Q302.9063,665.375 305.4063,665.375 Q306.1094,665.375 306.7578,665.5313 Q307.4063,665.6875 307.9688,665.9844 L307.9688,668.7031 Q307.3438,668.125 306.75,667.8516 Q306.1563,667.5781 305.5313,667.5781 Q304.1875,667.5781 303.5,668.6484 Q302.8125,669.7188 302.8125,671.8125 Q302.8125,673.9063 303.5,674.9766 Q304.1875,676.0469 305.5313,676.0469 Q306.1563,676.0469 306.75,675.7734 Q307.3438,675.5 307.9688,674.9219 L307.9688,677.6406 Z "/><text fill="#000000" font-size="12" lengthAdjust="spacingAndGlyphs" textLength="17" x="319" y="677.0156">Dir</text><line style="stroke: #A80036; stroke-width: 1.5;" x1="291" x2="338" y1="688" y2="688"/><line style="stroke: #A80036; stroke-width: 1.5;" x1="291" x2="338" y1="696" y2="696"/><rect fill="#FEFECE" filter="url(#f1)" height="48" style="stroke: #A80036; stroke-width: 1.5;" width="108" x="377" y="548"/><ellipse cx="392" cy="564" fill="#ADD1B2" rx="11" ry="11" style="stroke: #A80036; stroke-width: 1.0;"/><path d="M394.9688,569.6406 Q394.3906,569.9375 393.75,570.0859 Q393.1094,570.2344 392.4063,570.2344 Q389.9063,570.2344 388.5859,568.5859 Q387.2656,566.9375 387.2656,563.8125 Q387.2656,560.6875 388.5859,559.0313 Q389.9063,557.375 392.4063,557.375 Q393.1094,557.375 393.7578,557.5313 Q394.4063,557.6875 394.9688,557.9844 L394.9688,560.7031 Q394.3438,560.125 393.75,559.8516 Q393.1563,559.5781 392.5313,559.5781 Q391.1875,559.5781 390.5,560.6484 Q389.8125,561.7188 389.8125,563.8125 Q389.8125,565.9063 390.5,566.9766 Q391.1875,568.0469 392.5313,568.0469 Q393.1563,568.0469 393.75,567.7734 Q394.3438,567.5 394.9688,566.9219 L394.9688,569.6406 Z "/><text fill="#000000" font-size="12" lengthAdjust="spacingAndGlyphs" textLength="76" x="406" y="569.0156">PDocSearch</text><line style="stroke: #A80036; stroke-width: 1.5;" x1="378" x2="484" y1="580" y2="580"/><line style="stroke: #A80036; stroke-width: 1.5;" x1="378" x2="484" y1="588" y2="588"/><rect fill="#FEFECE" filter="url(#f1)" height="48" style="stroke: #A80036; stroke-width: 1.5;" width="100" x="381" y="656"/><ellipse cx="396" cy="672" fill="#ADD1B2" rx="11" ry="11" style="stroke: #A80036; stroke-width: 1.0;"/><path d="M398.9688,677.6406 Q398.3906,677.9375 397.75,678.0859 Q397.1094,678.2344 396.4063,678.2344 Q393.9063,678.2344 392.5859,676.5859 Q391.2656,674.9375 391.2656,671.8125 Q391.2656,668.6875 392.5859,667.0313 Q393.9063,665.375 396.4063,665.375 Q397.1094,665.375 397.7578,665.5313 Q398.4063,665.6875 398.9688,665.9844 L398.9688,668.7031 Q398.3438,668.125 397.75,667.8516 Q397.1563,667.5781 396.5313,667.5781 Q395.1875,667.5781 394.5,668.6484 Q393.8125,669.7188 393.8125,671.8125 Q393.8125,673.9063 394.5,674.9766 Q395.1875,676.0469 396.5313,676.0469 Q397.1563,676.0469 397.75,675.7734 Q398.3438,675.5 398.9688,674.9219 L398.9688,677.6406 Z "/><text fill="#000000" font-size="12" lengthAdjust="spacingAndGlyphs" textLength="68" x="410" y="677.0156">DocSearch</text><line style="stroke: #A80036; stroke-width: 1.5;" x1="382" x2="480" y1="688" y2="688"/><line style="stroke: #A80036; stroke-width: 1.5;" x1="382" x2="480" y1="696" y2="696"/><path d="M197,76.291 C197,89.817 197,104.184 197,115.844 " fill="none" style="stroke: #A80036; stroke-width: 1.0;"/><polygon fill="none" points="190,76.237,197,56.237,204,76.237,190,76.237" style="stroke: #A80036; stroke-width: 1.0;"/><path d="M197,184.291 C197,197.817 197,212.184 197,223.844 " fill="none" style="stroke: #A80036; stroke-width: 1.0;"/><polygon fill="none" points="190,184.237,197,164.237,204,184.237,190,184.237" style="stroke: #A80036; stroke-width: 1.0;"/><path d="M197,292.291 C197,305.817 197,320.184 197,331.844 " fill="none" style="stroke: #A80036; stroke-width: 1.0;"/><polygon fill="none" points="190,292.237,197,272.237,204,292.237,190,292.237" style="stroke: #A80036; stroke-width: 1.0;"/><path d="M152.499,388.041 C129.273,404.764 101.3422,424.874 80.0559,440.2 " fill="none" style="stroke: #A80036; stroke-width: 1.0;"/><polygon fill="none" points="148.465,382.319,168.786,376.314,156.646,393.681,148.465,382.319" style="stroke: #A80036; stroke-width: 1.0;"/><path d="M47,508.291 C47,521.817 47,536.184 47,547.844 " fill="none" style="stroke: #A80036; stroke-width: 1.0;"/><polygon fill="none" points="40.0001,508.237,47,488.237,54.0001,508.237,40.0001,508.237" style="stroke: #A80036; stroke-width: 1.0;"/><path d="M177.164,398.845 C170.709,412.788 163.774,427.767 158.184,439.844 " fill="none" style="stroke: #A80036; stroke-width: 1.0;"/><polygon fill="none" points="171.024,395.446,185.779,380.237,183.729,401.328,171.024,395.446" style="stroke: #A80036; stroke-width: 1.0;"/><path d="M216.836,398.845 C223.291,412.788 230.226,427.767 235.816,439.844 " fill="none" style="stroke: #A80036; stroke-width: 1.0;"/><polygon fill="none" points="210.271,401.328,208.221,380.237,222.976,395.446,210.271,401.328" style="stroke: #A80036; stroke-width: 1.0;"/><path d="M242.547,383.95 C270.771,401.269 306.656,423.289 333.643,439.849 " fill="none" style="stroke: #A80036; stroke-width: 1.0;"/><polygon fill="none" points="238.663,389.779,225.277,373.352,245.985,377.846,238.663,389.779" style="stroke: #A80036; stroke-width: 1.0;"/><path d="M350.118,505.885 C342.354,520.097 333.946,535.489 327.197,547.844 " fill="none" style="stroke: #A80036; stroke-width: 1.0;"/><polygon fill="none" points="344.028,502.433,359.759,488.237,356.314,509.145,344.028,502.433" style="stroke: #A80036; stroke-width: 1.0;"/><path d="M314,616.2911 C314,629.8171 314,644.1835 314,655.8436 " fill="none" style="stroke: #A80036; stroke-width: 1.0;"/><polygon fill="none" points="307,616.2373,314,596.237,321,616.2373,307,616.2373" style="stroke: #A80036; stroke-width: 1.0;"/><path d="M395.494,505.885 C403.126,520.097 411.392,535.489 418.027,547.844 " fill="none" style="stroke: #A80036; stroke-width: 1.0;"/><polygon fill="none" points="389.312,509.169,386.016,488.237,401.646,502.545,389.312,509.169" style="stroke: #A80036; stroke-width: 1.0;"/><path d="M431,616.2911 C431,629.8171 431,644.1835 431,655.8436 " fill="none" style="stroke: #A80036; stroke-width: 1.0;"/><polygon fill="none" points="424,616.2373,431,596.237,438,616.2373,424,616.2373" style="stroke: #A80036; stroke-width: 1.0;"/></g></svg>